<svg width="229" height="203" viewBox="0 0 229 203" fill="none" xmlns="http://www.w3.org/2000/svg">
<path d="M72.9049 63.4136C65.0069 71.7322 62.8584 84.8981 69.1432 94.7765C74.6634 103.454 85.3063 108.799 95.5822 107.912C105.873 107.025 114.872 100.151 119.299 90.923C123.757 81.6258 123.543 70.3177 117.189 61.8997C110.889 53.5505 100.613 49.7047 90.3449 51.2109C89.0986 51.3944 87.8753 51.662 86.6596 52.0061C85.1687 52.4266 84.2436 54.0322 84.6564 55.5308C85.0617 57.0217 86.6902 57.9621 88.1811 57.534C89.3051 57.2129 90.4443 56.9606 91.5988 56.7771C92.1569 56.6853 91.3235 56.8 91.8893 56.7388C92.1493 56.7082 92.4092 56.6853 92.6768 56.6624C93.2426 56.6165 93.8084 56.5859 94.3742 56.5783C95.4905 56.5553 96.6068 56.6089 97.7154 56.7312C97.8454 56.7465 97.9677 56.7618 98.0977 56.7771C98.0518 56.7694 97.6313 56.7006 97.9677 56.7618C98.22 56.8076 98.4723 56.8382 98.717 56.8841C99.2522 56.9835 99.795 57.0982 100.323 57.2282C101.378 57.4881 102.418 57.8169 103.427 58.2145C103.603 58.2833 104.115 58.505 103.664 58.3062C103.893 58.4056 104.123 58.5126 104.344 58.612C104.834 58.8414 105.308 59.0861 105.782 59.3537C106.722 59.8812 107.617 60.47 108.488 61.1046C108.748 61.2957 108.435 61.0587 108.404 61.0357C108.504 61.1122 108.603 61.1887 108.695 61.2651C108.886 61.4257 109.077 61.5786 109.268 61.7468C109.673 62.0985 110.071 62.4655 110.453 62.8478C110.836 63.2301 111.21 63.62 111.57 64.0252C111.738 64.2164 111.898 64.4075 112.059 64.5987C112.166 64.7286 112.617 65.325 112.311 64.9045C112.969 65.7914 113.573 66.7165 114.1 67.6799C114.353 68.131 114.582 68.5974 114.804 69.0638C114.911 69.3008 115.025 69.5378 115.125 69.7748C114.926 69.3085 115.224 70.0424 115.278 70.1877C115.683 71.2734 116.012 72.3897 116.256 73.5213C116.363 74.0259 116.447 74.5305 116.539 75.0428C116.6 75.3792 116.532 74.9587 116.524 74.9128C116.539 75.0428 116.555 75.1651 116.57 75.2951C116.6 75.5933 116.623 75.8914 116.646 76.1896C116.723 77.2906 116.715 78.4069 116.639 79.5079C116.6 80.0202 116.555 80.5248 116.486 81.0294C116.555 80.5171 116.47 81.0829 116.44 81.2817C116.394 81.5722 116.333 81.8704 116.279 82.161C116.058 83.2467 115.767 84.3247 115.415 85.3798C115.255 85.8692 115.079 86.3508 114.888 86.8249C114.842 86.9472 114.796 87.0619 114.743 87.1842C114.758 87.1384 114.911 86.7867 114.781 87.0925C114.643 87.406 114.498 87.7194 114.353 88.0253C113.886 88.9963 113.374 89.9367 112.8 90.8465C112.525 91.2824 112.242 91.7182 111.952 92.1387C111.776 92.3833 111.6 92.628 111.424 92.8727C111.348 92.9797 111.271 93.0791 111.195 93.1785C111.371 92.9491 111.31 93.0332 111.164 93.2091C110.476 94.0348 109.773 94.8376 109.008 95.5946C108.611 95.9845 108.205 96.3668 107.793 96.7338C107.601 96.902 107.403 97.0702 107.211 97.2308C107.112 97.3149 107.013 97.3913 106.913 97.4754C106.875 97.506 106.462 97.8348 106.699 97.6513C106.89 97.4984 106.37 97.8959 106.271 97.9647C106.065 98.1177 105.85 98.2629 105.644 98.4082C105.185 98.7217 104.719 99.0122 104.237 99.2951C103.763 99.578 103.274 99.8379 102.777 100.09C102.548 100.205 102.318 100.32 102.089 100.427C101.936 100.495 101.232 100.794 101.722 100.603C100.735 101.008 99.7186 101.344 98.6864 101.619C98.1436 101.757 97.6007 101.879 97.0502 101.986C96.7903 102.032 96.5303 102.078 96.2704 102.116C96.8056 102.032 96.0333 102.139 95.8575 102.155C94.7259 102.262 93.579 102.292 92.4398 102.246C91.9123 102.223 91.3924 102.185 90.8648 102.124C90.7348 102.109 90.6048 102.093 90.4749 102.078C90.5207 102.086 90.926 102.147 90.5819 102.093C90.2761 102.048 89.9779 102.002 89.6721 101.941C88.5481 101.734 87.4395 101.451 86.3462 101.1C85.8415 100.939 85.3446 100.763 84.8552 100.572C84.71 100.518 84.1289 100.274 84.5647 100.457C84.2818 100.335 83.9989 100.205 83.7237 100.075C82.6915 99.5856 81.6899 99.0352 80.7265 98.4158C80.2831 98.133 79.8473 97.8348 79.4267 97.5289C79.3274 97.4601 78.8074 97.0625 78.9833 97.2002C79.2203 97.3837 78.8839 97.1161 78.861 97.1008C78.731 96.9861 78.5934 96.8791 78.4557 96.7644C77.5918 96.0304 76.7737 95.2429 76.0167 94.4018C75.665 94.0119 75.3286 93.6143 75.0075 93.2091C75.298 93.5761 74.9158 93.0791 74.8317 92.9568C74.6329 92.6739 74.4341 92.391 74.2429 92.1004C73.6466 91.1906 73.119 90.2349 72.6679 89.2486C72.6144 89.1263 72.5609 89.0116 72.5073 88.8892C72.5303 88.9351 72.6679 89.2792 72.5456 88.9657C72.4462 88.721 72.3544 88.4764 72.2627 88.2317C72.0409 87.6047 71.8422 86.9625 71.6816 86.3203C71.544 85.7545 71.4293 85.1887 71.3299 84.6153C71.2687 84.2788 71.3222 84.6 71.3299 84.6611C71.307 84.5159 71.2993 84.3706 71.284 84.2253C71.2458 83.8889 71.2229 83.5525 71.1999 83.2161C71.1311 81.9545 71.1693 80.7006 71.307 79.4467C71.3605 78.9192 71.2764 79.5767 71.3605 79.0568C71.4064 78.7663 71.4599 78.4834 71.5134 78.1928C71.6357 77.5735 71.7886 76.9619 71.9568 76.3502C72.1251 75.7385 72.3238 75.1422 72.5379 74.5458C72.6373 74.2705 72.7444 74.0029 72.8514 73.7277C72.7061 74.0794 73.0349 73.3301 73.0884 73.2078C73.6083 72.1144 74.2047 71.0517 74.8775 70.0424C75.0687 69.7596 75.2598 69.4843 75.4586 69.2091C75.6497 68.9415 75.4892 69.1632 75.451 69.2091C75.5351 69.0944 75.6345 68.9797 75.7186 68.8726C76.1161 68.3833 76.529 67.9246 76.9572 67.4658C78.0199 66.3419 78.0735 64.5299 76.9572 63.4136C75.8868 62.3432 73.9753 62.2896 72.9049 63.4136Z" fill="#F6F4EF"/>
<path d="M81.9271 1.66664C71.8959 3.37929 62.1017 6.26174 52.8732 10.5587C44.8146 14.3127 37.2988 19.2366 30.7005 25.2079C24.6069 30.7129 19.3389 37.1659 15.0803 44.1847C10.8827 51.0965 7.64858 58.6199 5.33191 66.365C3.01525 74.1331 1.63901 82.1841 1.01971 90.2657C0.27807 99.9681 1.21085 109.778 3.64985 119.197C6.11178 128.724 10.1105 137.906 15.3249 146.256C20.5164 154.574 26.9388 162.189 34.3552 168.612C41.9398 175.179 50.4648 180.493 59.7468 184.308C68.677 187.978 78.2342 189.997 87.8679 190.54C97.4403 191.083 107.128 190.081 116.432 187.787C125.791 185.471 134.866 181.778 143.17 176.884C151.412 172.037 159.004 165.951 165.396 158.825C172.086 151.371 177.369 142.876 181.215 133.632C185.022 124.48 187.24 114.732 188.058 104.861C188.876 94.9678 188.173 84.9442 186.078 75.2494C183.983 65.5469 180.397 56.1121 175.427 47.5106C170.335 38.7103 163.714 30.7893 155.969 24.214C147.772 17.2563 138.498 11.7667 128.505 7.79854C118.726 3.9145 108.29 1.64371 97.7844 1.09321C92.7535 0.82561 87.7073 0.986171 82.6993 1.57489C81.216 1.75075 79.7557 2.76763 79.8322 4.44205C79.8933 5.84887 81.1014 7.49271 82.6993 7.30921C87.7532 6.72049 92.8529 6.55993 97.9297 6.83517C99.2142 6.90399 100.491 7.00338 101.768 7.12571C102.357 7.17923 102.945 7.24805 103.534 7.31686C103.825 7.34744 104.123 7.38567 104.413 7.4239C104.559 7.43919 104.704 7.46213 104.857 7.47742C104.543 7.43919 104.818 7.46977 104.971 7.49271C107.517 7.85206 110.041 8.31081 112.548 8.86895C122.641 11.1321 131.571 14.7179 140.356 20.0088C144.798 22.6848 148.621 25.4449 152.36 28.6562C156.183 31.9438 159.73 35.545 162.934 39.4443C163.286 39.8725 163.637 40.3083 163.981 40.7518C164.058 40.8435 164.471 41.3863 164.218 41.0499C164.448 41.3481 164.669 41.6387 164.891 41.9368C165.587 42.8696 166.26 43.8101 166.917 44.7658C168.278 46.7537 169.555 48.8027 170.748 50.89C171.918 52.9467 173.003 55.0417 174.013 57.1825C174.265 57.7253 174.517 58.2758 174.762 58.8263C174.877 59.0786 174.984 59.3386 175.098 59.5909C175.152 59.7209 175.473 60.4702 175.297 60.0573C175.763 61.1659 176.207 62.2899 176.627 63.4214C178.302 67.9018 179.632 72.5122 180.626 77.1914C181.115 79.5081 181.521 81.8477 181.842 84.2026C181.781 83.7286 181.865 84.4014 181.888 84.5466C181.926 84.8219 181.957 85.0971 181.987 85.38C182.064 86.0299 182.132 86.6722 182.194 87.3221C182.308 88.5224 182.4 89.7305 182.476 90.9385C182.759 95.7171 182.698 100.519 182.278 105.29C182.178 106.444 182.056 107.599 181.911 108.753C181.88 109.028 181.842 109.304 181.804 109.579C181.872 109.051 181.758 109.915 181.735 110.061C181.651 110.657 181.551 111.253 181.46 111.85C181.077 114.182 180.603 116.498 180.037 118.8C179.464 121.139 178.806 123.456 178.05 125.742C177.675 126.889 177.27 128.02 176.849 129.152C176.65 129.672 176.452 130.192 176.253 130.704C176.153 130.964 176.046 131.216 175.939 131.476C175.886 131.606 175.572 132.363 175.748 131.943C173.89 136.347 171.65 140.59 169.073 144.612C168.439 145.606 167.774 146.592 167.093 147.555C166.78 147.999 166.466 148.435 166.145 148.87C165.962 149.123 165.77 149.375 165.579 149.627C165.495 149.734 165.419 149.841 165.335 149.948C165.304 149.987 164.983 150.407 165.151 150.193C165.327 149.964 165.059 150.315 165.044 150.331C164.96 150.438 164.876 150.545 164.792 150.652C164.624 150.866 164.455 151.072 164.287 151.286C163.89 151.776 163.492 152.265 163.087 152.739C162.36 153.595 161.626 154.444 160.87 155.27C157.758 158.688 154.371 161.845 150.762 164.735C150.555 164.904 150.341 165.072 150.127 165.24C150.028 165.316 149.378 165.821 149.753 165.538C149.286 165.89 148.82 166.242 148.353 166.593C147.413 167.289 146.457 167.962 145.494 168.619C143.598 169.912 141.656 171.127 139.668 172.282C137.642 173.452 135.577 174.552 133.467 175.577C132.458 176.066 131.433 176.54 130.401 176.999C130.111 177.129 129.828 177.251 129.537 177.381C129.407 177.435 128.803 177.695 129.231 177.519C128.689 177.748 128.146 177.97 127.603 178.184C123.291 179.897 118.864 181.311 114.353 182.397C112.082 182.948 109.781 183.414 107.479 183.796C106.944 183.888 106.416 183.964 105.881 184.049C105.614 184.087 105.346 184.125 105.078 184.163C105.048 184.171 104.604 184.224 104.926 184.186C105.239 184.148 104.689 184.217 104.635 184.224C103.473 184.37 102.311 184.5 101.149 184.599C96.5458 185.012 91.9125 185.081 87.3021 184.79C86.1399 184.714 84.9778 184.622 83.8156 184.5C83.2804 184.446 82.7452 184.385 82.21 184.324C81.9424 184.293 81.6748 184.255 81.4072 184.224C81.9653 184.293 80.9714 184.163 80.8338 184.14C78.5706 183.812 76.3151 183.391 74.0902 182.879C69.5257 181.831 65.0453 180.394 60.7254 178.582C61.1383 178.758 60.519 178.49 60.3967 178.437C60.1443 178.329 59.892 178.215 59.6397 178.1C59.051 177.84 58.4699 177.573 57.8888 177.297C56.849 176.808 55.8245 176.296 54.8076 175.761C52.6974 174.652 50.6254 173.459 48.6145 172.175C46.6343 170.921 44.7076 169.59 42.8343 168.184C42.5744 167.992 42.3221 167.794 42.0698 167.602C41.8098 167.404 42.0621 167.595 42.108 167.633C42.001 167.549 41.8939 167.465 41.7792 167.381C41.3128 167.014 40.8465 166.639 40.3801 166.257C39.4549 165.5 38.5451 164.728 37.6505 163.933C34.1029 160.79 30.7846 157.38 27.7416 153.748C27.3899 153.328 27.0382 152.9 26.6865 152.472C26.3501 152.059 25.769 151.325 25.6237 151.134C25.1879 150.568 24.2934 149.367 23.697 148.542C22.2978 146.592 20.9751 144.596 19.7289 142.547C18.5056 140.544 17.351 138.495 16.2806 136.408C15.7301 135.345 15.2026 134.267 14.698 133.189C14.4609 132.692 14.2316 132.187 14.0098 131.683C13.8799 131.392 13.7499 131.094 13.6199 130.796C13.5511 130.628 13.2759 129.993 13.3294 130.123C13.4441 130.391 13.2682 129.97 13.2606 129.955C13.207 129.825 13.1535 129.702 13.1 129.573C12.993 129.32 12.8936 129.06 12.7865 128.808C12.5648 128.25 12.3507 127.699 12.1366 127.134C11.7161 126.017 11.3185 124.893 10.9363 123.754C10.1793 121.491 9.51414 119.197 8.93307 116.881C8.36728 114.61 7.89324 112.316 7.51096 110.015C7.41156 109.426 7.31981 108.837 7.23571 108.248C7.21277 108.096 7.12102 107.438 7.18983 107.92C7.14396 107.599 7.10573 107.285 7.0675 106.964C6.92223 105.779 6.80755 104.594 6.7158 103.401C6.35645 98.7983 6.39468 94.1879 6.77696 89.5928C6.93752 87.6661 7.15161 85.747 7.39627 83.8356C7.44214 83.4992 7.37333 84.0114 7.37333 84.0344C7.38862 83.9197 7.40391 83.8127 7.41921 83.698C7.44979 83.4762 7.48037 83.2469 7.5186 83.0251C7.59506 82.5052 7.67916 81.9777 7.76327 81.4578C7.91618 80.4867 8.08439 79.5234 8.26789 78.5524C8.98659 74.7371 9.90408 70.9678 11.0433 67.2519C11.6014 65.417 12.2131 63.6049 12.8859 61.8082C13.2223 60.8907 13.5817 59.9808 13.9487 59.0786C14.0328 58.8722 14.1169 58.6658 14.2086 58.4517C14.2545 58.3446 14.2927 58.2452 14.3386 58.1382C14.331 58.1611 14.1398 58.6046 14.2698 58.3064C14.4686 57.863 14.6597 57.4119 14.8585 56.9684C16.4336 53.4361 18.238 49.9955 20.2641 46.7001C21.2963 45.0257 22.382 43.3819 23.5212 41.7839C23.7888 41.4169 24.0564 41.0423 24.324 40.6753C24.4616 40.4918 24.5992 40.3083 24.7368 40.1248C24.8439 39.9872 25.3179 39.3679 25.1344 39.5972C24.928 39.8648 25.3409 39.3373 25.402 39.2532C25.5473 39.0697 25.6849 38.8938 25.8302 38.718C26.1437 38.328 26.4571 37.9458 26.7706 37.5635C29.3319 34.4899 32.115 31.6074 35.0968 28.9467C35.8691 28.2586 36.6489 27.5858 37.4441 26.9282C37.8111 26.6224 38.1857 26.3166 38.5604 26.0184C38.7821 25.8425 39.0038 25.6667 39.2179 25.4985C39.2485 25.4679 39.5696 25.2232 39.3097 25.4297C39.0421 25.6361 39.4549 25.3226 39.5008 25.2844C41.1599 24.0228 42.8573 22.8225 44.6005 21.6909C48.2781 19.2978 52.1392 17.1799 56.1227 15.3449C56.6426 15.1079 57.1701 14.8709 57.6977 14.6338C57.9424 14.5268 58.187 14.4198 58.4317 14.3127C58.4546 14.3051 58.8599 14.1292 58.5846 14.2439C58.3247 14.3586 58.814 14.1445 58.8599 14.1292C59.9456 13.6781 61.0465 13.2423 62.1475 12.8294C64.3801 11.9961 66.6356 11.2391 68.9217 10.551C73.6926 9.12126 78.5477 8.02027 83.4563 7.18688C84.9854 6.92692 85.8417 5.04607 85.4594 3.66219C85.016 2.05658 83.4639 1.40669 81.9271 1.66664Z" fill="#F6F4EF"/>
<path d="M158.277 166.258C165.449 171.923 172.583 177.642 179.831 183.209C180.58 183.782 181.337 184.348 182.086 184.921C182.323 185.105 182.56 185.281 182.797 185.464C183.34 185.885 182.117 184.936 182.713 185.395C182.904 185.548 183.103 185.701 183.294 185.846C184.365 186.68 185.428 187.513 186.49 188.346C191.965 192.643 197.431 196.963 202.89 201.283C203.991 202.155 205.903 202.606 206.943 201.283C209.343 198.232 211.744 195.174 214.145 192.123C217.953 187.284 221.76 182.444 225.56 177.604C226.439 176.48 227.319 175.364 228.206 174.24C229.444 172.665 229.222 170.945 227.624 169.737C221.89 165.417 216.171 161.082 210.467 156.724C209.527 156.005 208.594 155.286 207.654 154.568C207.256 154.262 206.859 153.956 206.461 153.65C206.255 153.497 206.056 153.337 205.857 153.184C205.467 152.878 205.941 153.252 205.995 153.291C205.849 153.184 205.712 153.069 205.566 152.962C204.251 151.945 202.952 150.928 201.66 149.888C198.035 146.975 194.442 144.009 190.856 141.05C188.264 138.909 185.672 136.768 183.088 134.627C181.895 133.641 180.198 133.458 179.036 134.627C178.019 135.644 177.835 137.686 179.036 138.68C184.892 143.542 190.757 148.405 196.682 153.191C203.54 158.734 210.628 164.01 217.662 169.331C220.017 171.113 222.38 172.902 224.742 174.683C224.551 173.185 224.352 171.679 224.161 170.18C221.76 173.231 219.359 176.289 216.959 179.34C213.151 184.18 209.343 189.019 205.544 193.859C204.664 194.983 203.785 196.099 202.898 197.223C204.251 197.223 205.605 197.223 206.95 197.223C199.779 191.558 192.645 185.839 185.397 180.273C184.648 179.699 183.891 179.133 183.141 178.56C182.904 178.376 182.667 178.201 182.43 178.017C181.888 177.597 183.111 178.545 182.515 178.086C182.323 177.933 182.125 177.78 181.933 177.635C180.863 176.801 179.8 175.968 178.738 175.135C173.263 170.838 167.796 166.518 162.337 162.198C161.122 161.242 159.47 161.013 158.285 162.198C157.276 163.2 157.054 165.295 158.277 166.258Z" fill="#F6F4EF"/>
<path d="M37.513 75.2422C34.8523 75.2422 32.1074 75.7086 29.8061 77.1154C27.4435 78.5681 25.7462 80.7777 24.7599 83.3467C22.7414 88.6146 24.7751 94.9529 29.1256 98.3935C33.4684 101.834 39.2868 102.805 44.2871 100.167C48.8363 97.7666 52.1164 92.4298 51.5047 87.2154C50.7631 80.9077 45.6022 75.8156 39.2103 75.441C37.7118 75.3569 36.2744 76.8249 36.3432 78.3081C36.4196 79.9367 37.6047 81.0835 39.2103 81.1753C39.2868 81.1829 40.1431 81.2976 39.5085 81.1829C39.6844 81.2135 39.8602 81.2441 40.0284 81.29C40.2884 81.3511 40.5407 81.42 40.793 81.5041C40.7548 81.4888 41.5652 81.7946 41.1982 81.6417C40.8312 81.4888 41.6111 81.8481 41.5805 81.8328C41.7793 81.9322 41.9705 82.0469 42.1616 82.1616C42.3527 82.2763 42.5362 82.4063 42.7197 82.5209C42.9873 82.7197 43.0103 82.7274 42.7809 82.5515C42.8879 82.6356 42.9873 82.7197 43.0867 82.8115C43.4231 83.1097 43.7443 83.4231 44.0348 83.7519C44.1189 83.8437 44.4859 84.2948 44.1801 83.8972C44.3406 84.1113 44.4936 84.333 44.6388 84.5624C44.8835 84.937 45.0823 85.3346 45.2887 85.7322C45.3346 85.8239 45.4799 86.2368 45.3116 85.7857C45.4187 86.0762 45.5181 86.3744 45.6022 86.6726C45.6634 86.8867 45.7016 87.1084 45.7551 87.3225C45.9615 88.11 45.7704 86.8102 45.801 87.6207C45.8239 88.0718 45.8086 88.5152 45.8086 88.9587C45.8086 89.0581 45.7475 89.5245 45.8239 88.9893C45.7857 89.2492 45.7322 89.5168 45.671 89.7768C45.6328 89.9526 45.5869 90.1208 45.5334 90.289C45.5028 90.3884 45.1434 91.39 45.3652 90.8548C45.197 91.2677 44.9829 91.6576 44.7535 92.0399C44.6618 92.1928 44.57 92.3457 44.4706 92.491C44.4477 92.5292 43.9278 93.225 44.2871 92.7739C44.0042 93.1256 43.706 93.4544 43.3849 93.7679C43.2549 93.8902 43.125 94.0125 42.995 94.1349C42.865 94.2572 42.7274 94.3719 42.5821 94.4789C42.8115 94.3031 42.7885 94.3183 42.5209 94.5171C42.1463 94.7618 41.7793 95.0065 41.3817 95.2129C41.2212 95.297 41.0606 95.3735 40.9 95.4499C41.4353 95.1976 40.6477 95.5417 40.5942 95.557C40.1661 95.7022 39.7379 95.794 39.3021 95.901C38.4916 96.0998 39.6309 95.8857 39.1339 95.9316C38.8204 95.9622 38.5146 95.9775 38.2011 95.9775C37.9794 95.9775 37.7576 95.9698 37.5359 95.9545C37.3906 95.9469 36.8096 95.8857 37.3677 95.9622C36.9319 95.901 36.4884 95.8016 36.0603 95.6869C35.6321 95.5723 35.204 95.427 34.7911 95.2588C35.3416 95.4882 34.5464 95.1212 34.5005 95.1059C34.2635 94.9835 34.0265 94.8536 33.7971 94.7159C33.606 94.6012 33.4149 94.4789 33.2314 94.3566C33.132 94.2878 32.6579 93.9437 33.0555 94.2495C32.7038 93.9743 32.375 93.6685 32.0539 93.355C31.8628 93.1638 31.6946 92.9574 31.5034 92.7663C31.4499 92.7051 31.1594 92.3457 31.4499 92.7204C31.1211 92.2999 30.8382 91.8335 30.5859 91.3671C30.4559 91.1301 30.3336 90.8931 30.2342 90.6407C30.2877 90.7784 30.3795 91.0613 30.2036 90.5184C30.0507 90.0367 29.9284 89.5627 29.8137 89.0734C29.6149 88.2017 29.8061 89.5398 29.7525 88.6452C29.7372 88.4464 29.722 88.2476 29.722 88.0488C29.7143 87.7506 29.7143 87.4525 29.7372 87.1466C29.7372 87.1313 29.8519 86.2368 29.7678 86.7185C29.8672 86.1297 30.0278 85.5563 30.2266 84.9982C30.5018 84.2183 29.9896 85.3116 30.4177 84.5929C30.5706 84.333 30.7083 84.073 30.8688 83.8207C30.8306 83.8819 31.3887 83.1173 31.1211 83.4537C30.9453 83.6755 31.4881 83.0485 31.5569 82.9797C31.7022 82.8344 31.8551 82.6968 32.0004 82.5515C32.0921 82.4674 32.1839 82.391 32.2756 82.3069C32.0157 82.498 32.0157 82.5057 32.2756 82.3145C32.6961 82.0469 33.109 81.8022 33.5525 81.5805C33.0861 81.8175 33.4454 81.6187 33.5601 81.5805C33.8889 81.4658 34.21 81.3588 34.5464 81.267C34.7223 81.2212 34.8905 81.1829 35.0663 81.1447C35.2422 81.1065 35.4257 81.0759 35.6015 81.0453C35.3034 81.0759 35.3263 81.0759 35.678 81.0377C36.282 80.9842 36.886 80.9612 37.49 80.9612C38.9886 80.9612 40.426 79.6385 40.3572 78.0941C40.3113 76.5573 39.1186 75.2498 37.513 75.2422Z" fill="#F6F4EF"/>
<path d="M48.0178 111.047C43.4533 102.622 29.5074 102.599 25.157 111.261C24.4842 112.599 24.7594 114.427 26.1892 115.184C27.489 115.872 29.3928 115.589 30.1115 114.152C30.2797 113.823 30.4937 113.525 30.662 113.196C30.7996 112.928 30.3944 113.471 30.7384 113.081C30.8531 112.959 30.9601 112.829 31.0748 112.706C31.2201 112.554 31.373 112.408 31.5336 112.263C31.61 112.194 32.0611 111.82 31.6483 112.133C31.9617 111.896 32.2981 111.682 32.6346 111.483C32.9786 111.284 33.338 111.093 33.705 110.94C33.3303 111.101 33.7279 110.948 33.9038 110.887C34.072 110.826 34.2478 110.772 34.4237 110.726C34.8212 110.612 35.2188 110.527 35.624 110.451C35.1041 110.55 35.7082 110.443 35.8152 110.436C36.0446 110.42 36.2739 110.405 36.5033 110.405C36.9162 110.397 37.3291 110.42 37.7419 110.466C38.2083 110.512 37.3367 110.382 37.7954 110.482C38.0172 110.527 38.2465 110.573 38.4683 110.627C38.8659 110.726 39.2558 110.849 39.6381 110.986C40.0892 111.147 39.0723 110.696 39.8216 111.063C39.9821 111.139 40.1427 111.216 40.3033 111.3C40.6932 111.506 41.0602 111.743 41.4272 111.988C41.6183 112.118 41.6795 112.202 41.4654 112.011C41.626 112.148 41.7865 112.294 41.9394 112.439C42.2147 112.699 42.4823 112.974 42.704 113.272C42.5358 113.051 42.5664 113.081 42.6964 113.295C42.8264 113.509 42.9487 113.716 43.071 113.93C43.7897 115.253 45.7241 115.78 46.9933 114.962C48.3313 114.113 48.79 112.462 48.0178 111.047Z" fill="#F6F4EF"/>
<path d="M152.375 75.2422C149.714 75.2422 146.969 75.7086 144.668 77.1154C142.305 78.5681 140.608 80.7777 139.622 83.3467C137.603 88.6146 139.637 94.9529 143.987 98.3935C148.33 101.834 154.149 102.805 159.149 100.167C163.698 97.7666 166.978 92.4298 166.367 87.2154C165.625 80.9077 160.464 75.8156 154.072 75.441C152.574 75.3569 151.136 76.8249 151.205 78.3081C151.281 79.9367 152.467 81.0835 154.072 81.1753C154.149 81.1829 155.005 81.2976 154.37 81.1829C154.546 81.2135 154.722 81.2441 154.89 81.29C155.15 81.3511 155.403 81.42 155.655 81.5041C155.617 81.4888 156.427 81.7946 156.06 81.6417C155.693 81.4888 156.473 81.8481 156.442 81.8328C156.641 81.9322 156.832 82.0469 157.023 82.1616C157.215 82.2763 157.398 82.4063 157.582 82.5209C157.849 82.7197 157.872 82.7274 157.643 82.5515C157.75 82.6356 157.849 82.7197 157.949 82.8115C158.285 83.1097 158.606 83.4231 158.897 83.7519C158.981 83.8437 159.348 84.2948 159.042 83.8972C159.202 84.1113 159.355 84.333 159.501 84.5624C159.745 84.937 159.944 85.3346 160.151 85.7322C160.196 85.8239 160.342 86.2368 160.173 85.7857C160.281 86.0762 160.38 86.3744 160.464 86.6726C160.525 86.8867 160.563 87.1084 160.617 87.3225C160.823 88.11 160.632 86.8102 160.663 87.6207C160.686 88.0718 160.67 88.5152 160.67 88.9587C160.67 89.0581 160.609 89.5245 160.686 88.9893C160.648 89.2492 160.594 89.5168 160.533 89.7768C160.495 89.9526 160.449 90.1208 160.395 90.289C160.365 90.3884 160.005 91.39 160.227 90.8548C160.059 91.2677 159.845 91.6576 159.615 92.0399C159.524 92.1928 159.432 92.3457 159.332 92.491C159.309 92.5292 158.79 93.225 159.149 92.7739C158.866 93.1256 158.568 93.4544 158.247 93.7679C158.117 93.8902 157.987 94.0125 157.857 94.1349C157.727 94.2572 157.589 94.3719 157.444 94.4789C157.673 94.3031 157.65 94.3183 157.383 94.5171C157.008 94.7618 156.641 95.0065 156.244 95.2129C156.083 95.297 155.922 95.3735 155.762 95.4499C156.297 95.1976 155.51 95.5417 155.456 95.557C155.028 95.7022 154.6 95.794 154.164 95.901C153.353 96.0998 154.493 95.8857 153.996 95.9316C153.682 95.9622 153.376 95.9775 153.063 95.9775C152.841 95.9775 152.619 95.9698 152.398 95.9545C152.26 95.9469 151.671 95.8857 152.23 95.9622C151.794 95.901 151.35 95.8016 150.922 95.6869C150.494 95.5723 150.066 95.427 149.653 95.2588C150.203 95.4882 149.408 95.1212 149.362 95.1059C149.125 94.9835 148.888 94.8536 148.659 94.7159C148.468 94.6012 148.277 94.4789 148.093 94.3566C147.994 94.2878 147.52 93.9437 147.917 94.2495C147.566 93.9743 147.237 93.6685 146.916 93.355C146.725 93.1638 146.556 92.9574 146.365 92.7663C146.312 92.7051 146.021 92.3457 146.312 92.7204C145.983 92.2999 145.7 91.8335 145.448 91.3671C145.318 91.1301 145.195 90.8931 145.096 90.6407C145.15 90.7784 145.241 91.0613 145.065 90.5184C144.913 90.0367 144.79 89.5627 144.676 89.0734C144.477 88.2017 144.668 89.5398 144.614 88.6452C144.599 88.4464 144.584 88.2476 144.584 88.0488C144.576 87.7506 144.576 87.4525 144.599 87.1466C144.599 87.1313 144.714 86.2368 144.63 86.7185C144.729 86.1297 144.89 85.5563 145.088 84.9982C145.364 84.2183 144.851 85.3116 145.28 84.5929C145.432 84.333 145.57 84.073 145.731 83.8207C145.692 83.8819 146.251 83.1173 145.983 83.4537C145.807 83.6755 146.35 83.0485 146.419 82.9797C146.564 82.8344 146.717 82.6968 146.862 82.5515C146.954 82.4674 147.046 82.391 147.137 82.3069C146.877 82.498 146.877 82.5057 147.137 82.3145C147.558 82.0469 147.971 81.8022 148.414 81.5805C147.948 81.8175 148.307 81.6187 148.422 81.5805C148.751 81.4658 149.072 81.3588 149.408 81.267C149.584 81.2212 149.752 81.1829 149.928 81.1447C150.104 81.1065 150.287 81.0759 150.463 81.0453C150.165 81.0759 150.188 81.0759 150.54 81.0377C151.144 80.9842 151.748 80.9612 152.352 80.9612C153.85 80.9612 155.288 79.6385 155.219 78.0941C155.173 76.5573 153.98 75.2498 152.375 75.2422Z" fill="#F6F4EF"/>
<path d="M162.88 111.047C158.316 102.622 144.37 102.599 140.019 111.261C139.346 112.599 139.622 114.427 141.051 115.184C142.351 115.872 144.255 115.589 144.974 114.152C145.142 113.823 145.356 113.525 145.524 113.196C145.662 112.928 145.257 113.471 145.601 113.081C145.715 112.959 145.822 112.829 145.937 112.706C146.082 112.554 146.235 112.408 146.396 112.263C146.472 112.194 146.923 111.82 146.511 112.133C146.824 111.896 147.16 111.682 147.497 111.483C147.841 111.284 148.2 111.093 148.567 110.94C148.193 111.101 148.59 110.948 148.766 110.887C148.934 110.826 149.11 110.772 149.286 110.726C149.684 110.612 150.081 110.527 150.486 110.451C149.966 110.55 150.57 110.443 150.678 110.436C150.907 110.42 151.136 110.405 151.366 110.405C151.778 110.397 152.191 110.42 152.604 110.466C153.071 110.512 152.199 110.382 152.658 110.482C152.879 110.527 153.109 110.573 153.331 110.627C153.728 110.726 154.118 110.849 154.5 110.986C154.951 111.147 153.935 110.696 154.684 111.063C154.844 111.139 155.005 111.216 155.166 111.3C155.555 111.506 155.922 111.743 156.289 111.988C156.481 112.118 156.542 112.202 156.328 112.011C156.488 112.148 156.649 112.294 156.802 112.439C157.077 112.699 157.345 112.974 157.566 113.272C157.398 113.051 157.429 113.081 157.559 113.295C157.689 113.509 157.811 113.716 157.933 113.93C158.652 115.253 160.586 115.78 161.856 114.962C163.194 114.113 163.645 112.462 162.88 111.047Z" fill="#F6F4EF"/>
<path d="M62.1472 140.475C62.3383 139.864 62.5524 139.26 62.7818 138.663C62.843 138.51 63.1182 137.83 63.0494 137.991C62.9347 138.258 63.1182 137.845 63.1259 137.83C63.2176 137.624 63.317 137.417 63.4087 137.211C63.9745 136.01 64.6091 134.856 65.3202 133.732C65.6642 133.189 66.016 132.661 66.3906 132.142C66.5512 131.92 66.7117 131.698 66.8723 131.476C67.2087 131.025 67.0023 131.308 66.9258 131.408C67.0405 131.262 67.1552 131.125 67.2699 130.979C68.1109 129.955 69.0054 128.976 69.9535 128.043C70.9016 127.118 71.9032 126.231 72.9507 125.429C72.5989 125.704 73.2565 125.207 73.3559 125.13C73.6158 124.939 73.8758 124.756 74.1434 124.572C74.7092 124.182 75.2903 123.815 75.8713 123.456C76.9647 122.791 78.0962 122.194 79.2584 121.652C79.5489 121.514 79.8395 121.384 80.1377 121.262C79.7018 121.453 80.4741 121.132 80.5964 121.086C81.231 120.841 81.8809 120.612 82.5308 120.398C83.7923 119.992 85.0768 119.664 86.3766 119.411C86.6901 119.35 87.0035 119.297 87.317 119.243C87.4546 119.22 87.5846 119.205 87.7223 119.182C88.1886 119.113 87.3017 119.228 87.7758 119.174C88.4562 119.098 89.1367 119.029 89.8248 118.991C91.1093 118.922 92.4015 118.93 93.6859 119.021C94.0071 119.044 94.3282 119.075 94.6493 119.106C94.7946 119.121 95.628 119.22 95.1157 119.151C95.7962 119.243 96.4766 119.365 97.1495 119.511C98.4569 119.778 99.7414 120.13 101.003 120.558C101.615 120.765 102.211 120.994 102.815 121.223C102.83 121.231 103.251 121.399 102.983 121.292C102.685 121.17 103.213 121.392 103.274 121.422C103.61 121.567 103.947 121.728 104.275 121.881C105.483 122.462 106.653 123.104 107.785 123.815C108.289 124.136 108.794 124.465 109.283 124.809C109.551 124.993 109.811 125.184 110.071 125.375C110.216 125.482 110.369 125.597 110.514 125.704C110.277 125.52 110.461 125.658 110.591 125.765C111.73 126.705 112.831 127.676 113.863 128.732C114.375 129.259 114.872 129.802 115.346 130.36C115.583 130.643 115.82 130.926 116.05 131.209C116.409 131.645 116.187 131.377 116.111 131.278C116.249 131.461 116.386 131.645 116.524 131.828C117.388 133.013 118.175 134.259 118.879 135.552C119.23 136.201 119.559 136.859 119.857 137.524C119.911 137.646 119.972 137.776 120.026 137.899C119.827 137.455 120.079 138.021 120.11 138.105C120.263 138.488 120.408 138.877 120.553 139.267C121.073 140.72 122.503 141.706 124.078 141.271C125.485 140.881 126.609 139.206 126.081 137.746C122.013 126.43 112.273 117.622 100.689 114.449C88.9379 111.23 76.5212 114.656 67.4228 122.569C62.4224 126.912 58.6454 132.616 56.6346 138.931C56.1835 140.361 57.1698 142.127 58.6378 142.456C60.1822 142.838 61.6579 142.012 62.1472 140.475Z" fill="#F6F4EF"/>
<path d="M41.252 43.8558C45.3654 39.3295 49.6394 35.759 54.7085 32.6089C57.2393 31.0339 59.877 29.6347 62.5913 28.4114C63.8375 27.8532 64.8391 27.4404 66.3301 26.8975C67.7751 26.37 69.2431 25.8883 70.7187 25.4601C72.2937 25.0014 73.8917 24.6038 75.4973 24.2674C76.3536 24.0915 77.21 23.9233 78.0739 23.7857C79.0144 23.6251 79.5802 23.5487 80.2071 23.4722C81.6904 23.2887 83.1507 22.2871 83.0743 20.6051C83.0131 19.2059 81.8051 17.5391 80.2071 17.7379C67.2781 19.3206 55.1367 24.4356 44.9372 32.5401C42.1618 34.7497 39.5776 37.1811 37.1921 39.8036C36.1523 40.9504 36.0605 42.7242 37.1921 43.8558C38.2548 44.9109 40.2045 45.0027 41.252 43.8558Z" fill="#F6F4EF"/>
<path d="M80.2681 178.298C92.3867 179.736 104.62 178.383 116.356 175.156C119.59 174.269 122.779 173.245 125.944 172.128C127.404 171.616 128.375 170.171 127.947 168.604C127.557 167.189 125.89 166.088 124.422 166.6C113.42 170.469 102.296 173.099 90.7428 173.168C87.2411 173.191 83.747 172.977 80.2758 172.572C78.7772 172.396 77.3475 174.017 77.4086 175.439C77.4774 177.136 78.6625 178.107 80.2681 178.298Z" fill="#F6F4EF"/>
</svg>
