<svg width="240" height="251" viewBox="0 0 240 251" fill="none" xmlns="http://www.w3.org/2000/svg">
<path d="M60.1343 130.216C74.335 142.435 89.1962 154.324 102.186 167.974C105.709 171.717 109.121 175.57 112.204 179.643C113.084 180.854 114.515 181.514 115.946 180.634C133.45 170.176 153.815 163.461 168.346 148.599C176.712 140.123 181.556 129.115 186.179 118.327C191.133 106.878 195.536 95.2093 198.729 83.1001C202.251 69.5599 204.233 55.5794 203.682 41.5989C203.572 40.1678 202.472 38.7367 200.93 38.8468C188.491 39.8375 176.162 41.3787 163.832 43.5804C152.384 45.5618 140.825 47.8736 129.707 51.1761C119.579 54.2584 109.562 58.5516 101.636 65.707C97.3423 69.4499 93.8197 73.9633 90.5172 78.5867C86.9945 83.4304 83.692 88.3841 80.4996 93.3379C73.3442 104.346 66.7393 115.685 59.694 126.803C57.8225 129.775 62.5561 132.527 64.4275 129.555C70.5922 119.868 76.4266 110.07 82.5912 100.383C85.6735 95.4294 88.8659 90.5858 92.1684 85.7421C95.2507 81.2287 98.4431 76.7153 102.186 72.7523C109.231 65.2667 118.478 60.6432 128.166 57.4508C138.734 53.9282 149.742 51.7265 160.64 49.745C173.96 47.3232 187.39 45.4518 200.93 44.3509C200.05 43.4703 199.059 42.4795 198.178 41.5989C199.169 65.8171 192.344 89.485 183.097 111.612C180.785 117.226 178.363 122.73 175.611 128.124C173.079 133.188 170.217 138.032 166.585 142.325C160.09 149.7 151.833 155.094 143.247 159.718C133.339 165.222 122.882 169.846 113.194 175.68C114.405 176.01 115.726 176.34 116.937 176.671C105.599 161.809 91.2878 149.59 77.0871 137.481C72.6837 133.738 68.2804 129.995 63.9872 126.143C62.8864 125.152 61.2351 125.042 60.1343 126.143C59.1435 127.243 59.0335 129.225 60.1343 130.216Z" fill="#F5F3EE"/>
<path d="M93.2689 76.9351C70.5919 76.8251 46.5938 82.5494 30.6317 99.8324C26.6688 104.126 23.2562 109.079 20.9444 114.473C20.1739 116.345 21.0545 118.547 23.3663 118.657C37.3468 118.767 51.3273 119.757 65.1978 121.629C66.6289 121.849 67.9499 120.198 67.9499 118.877C67.9499 117.226 66.6289 116.345 65.1978 116.125C51.3273 114.253 37.3468 113.263 23.3663 113.152C24.1368 114.584 24.9074 115.905 25.7881 117.336C29.7511 108.419 36.246 100.933 44.282 95.4291C53.1987 89.2644 63.6566 85.6317 74.3347 83.8704C80.6094 82.7695 87.1043 82.4393 93.4891 82.5494C96.7916 82.5494 96.7916 77.0452 93.2689 76.9351Z" fill="#F5F3EE"/>
<path d="M119.138 176.229C121.67 189.329 122.991 202.759 123.212 216.079C123.212 218.611 126.184 219.602 127.945 218.061C136.091 210.905 144.237 203.64 151.063 195.163C154.475 190.98 157.447 186.467 160.199 181.733C162.731 177.44 164.933 172.927 166.254 168.083C167.795 162.469 167.795 156.634 166.584 150.91C166.254 149.479 164.603 148.598 163.172 149.039C161.63 149.479 160.97 150.91 161.3 152.451C162.181 156.855 162.181 161.478 161.19 165.881C160.089 170.395 158.108 174.468 155.796 178.431C150.622 187.348 144.347 195.163 137.082 202.319C132.899 206.392 128.496 210.355 124.092 214.208C125.633 214.868 127.175 215.529 128.826 216.189C128.606 202.319 127.175 188.448 124.533 174.908C124.202 173.477 122.551 172.596 121.12 173.037C119.579 173.257 118.918 174.798 119.138 176.229Z" fill="#F5F3EE"/>
<path d="M140.935 109.52C140.715 109.52 140.495 109.41 140.275 109.3C139.614 109.08 140.495 109.41 140.054 109.19C139.504 108.859 138.954 108.639 138.513 108.309C138.293 108.089 137.963 107.979 137.743 107.759C137.633 107.649 137.522 107.538 137.302 107.428C136.972 107.208 137.633 107.649 137.192 107.428C136.532 106.988 135.981 106.438 135.431 105.887C132.899 103.576 131.028 101.264 129.376 98.2915C128.496 96.7504 128.055 95.7596 127.505 94.1084C127.065 92.4571 126.844 91.9067 126.955 90.1454C126.955 89.9252 126.955 89.8151 126.955 89.595C126.955 89.7051 126.844 90.1454 126.955 89.595C127.065 89.2647 127.065 88.9345 127.175 88.6042C127.175 88.4941 127.285 88.274 127.395 88.1639C127.395 88.274 127.175 88.6042 127.395 88.1639C127.615 87.8336 127.725 87.5034 128.055 87.1731C128.276 86.8429 127.835 87.3933 128.165 87.0631C128.276 86.953 128.386 86.7328 128.496 86.6227C128.936 86.1824 129.486 85.632 129.927 85.1917C130.918 84.311 131.798 83.4303 132.899 82.5497C135.541 80.348 138.183 78.8068 141.265 78.0363C141.926 77.9262 142.696 77.706 143.357 77.5959C143.467 77.5959 143.907 77.4858 143.467 77.5959C143.687 77.5959 143.797 77.5959 144.017 77.4858C144.458 77.4858 144.898 77.3758 145.338 77.3758C147.87 77.1556 150.402 76.9354 152.934 77.3758C161.961 79.1371 165.594 89.4849 163.282 97.5209C160.64 107.318 150.292 112.492 140.935 109.52C137.522 108.419 136.091 113.813 139.504 114.804C149.962 118.106 162.181 113.263 167.135 103.355C171.978 93.558 169.887 80.348 160.09 74.2934C155.246 71.3212 149.411 71.4313 144.017 72.2019C140.054 72.6422 136.422 73.743 133.119 75.8346C130.918 77.2657 128.826 79.027 126.844 80.8984C125.193 82.4396 123.542 84.0908 122.661 86.1824C121.12 89.705 121.56 93.668 122.992 97.1907C124.643 101.484 127.395 105.337 130.477 108.529C132.899 111.061 136.091 113.923 139.614 114.694C142.917 115.685 144.348 110.401 140.935 109.52Z" fill="#F5F3EE"/>
<path d="M71.8031 136.6C68.1704 138.582 64.5377 140.673 60.9049 142.655C59.3638 143.535 57.7125 144.416 56.1714 145.297C54.5201 146.177 52.2084 147.058 51.2176 148.819C49.4563 152.122 52.979 155.975 54.6302 158.617C56.6117 161.479 58.5932 164.231 60.7948 166.873C65.0881 172.157 69.8216 177.111 74.8855 181.514C77.5275 183.826 80.2795 186.027 83.1417 188.119C85.7837 190.1 89.1962 193.183 92.6088 191.421C94.3701 190.541 95.3609 188.779 96.4617 187.238C97.8928 185.257 99.2138 183.385 100.645 181.404C103.287 177.661 105.929 173.918 108.681 170.175C109.562 168.965 108.901 167.093 107.69 166.433C106.259 165.662 104.828 166.212 103.947 167.423C99.7642 173.258 95.6911 179.092 91.508 184.927C91.1777 185.367 90.7374 186.137 90.2971 186.468C90.2971 186.468 90.6273 186.688 90.2971 186.358C89.8567 185.917 89.0862 185.587 88.6458 185.257C87.8752 184.706 87.1047 184.156 86.4442 183.716C84.1324 182.064 81.9308 180.303 79.8392 178.432C70.8124 170.726 62.9965 161.699 56.8319 151.571C56.8319 151.571 56.5016 150.911 56.3915 150.801C56.1714 150.25 56.0613 150.581 55.9512 151.792C56.0613 151.681 56.1714 151.681 56.2814 151.571C56.7218 151.571 57.3823 151.021 57.7125 150.801C58.1529 150.581 58.7033 150.25 59.1436 150.03C60.9049 149.039 62.6663 148.049 64.3175 147.168C67.8402 145.187 71.2527 143.315 74.7754 141.334C77.6375 139.572 74.8855 134.839 71.8031 136.6Z" fill="#F5F3EE"/>
<path d="M49.902 167.573C44.1879 167.213 38.4691 166.964 32.8074 167.929C27.3656 168.903 22.2965 171.436 18.1645 175.223C8.29817 184.158 5.8331 197.714 4.62582 210.222C3.83536 218.232 3.26487 226.25 0.724365 233.963C-0.160728 236.569 3.16216 238.697 5.2282 236.804C14.6546 227.85 29.6303 230.597 41.3697 229.236C53.109 227.876 63.5343 221.279 69.4942 210.961C72.7133 205.372 74.6415 199.065 74.7 192.677C74.6717 190.802 73.18 189.635 71.296 189.884C60.2021 191.603 49.1846 194.097 38.4635 197.375C39.6348 198.308 40.6962 199.236 41.8675 200.169C42.864 189.965 46.3804 180.091 52.1486 171.638C54.1527 168.64 49.5437 165.684 47.5396 168.682C41.293 177.996 37.4083 188.735 36.3686 199.928C36.1866 201.573 38.099 203.199 39.7727 202.722C50.4938 199.443 61.5113 196.949 72.6052 195.23C71.4338 194.297 70.3725 193.369 69.2011 192.437C69.1945 202.684 63.6937 212.581 55.2864 218.384C50.5137 221.702 45.0431 223.336 39.2906 223.857C32.6487 224.558 26.0548 224.16 19.4081 224.972C12.8714 225.788 6.27223 228.034 1.33188 232.667C2.83316 233.614 4.33444 234.561 5.83572 235.508C10.0268 222.799 8.85781 209.195 12.1691 196.448C13.509 190.997 15.7287 185.584 19.44 181.339C22.8023 177.519 27.1159 174.622 32.1274 173.408C37.8083 172.004 43.7423 172.373 49.5663 172.737C53.1812 173.226 53.4213 167.727 49.902 167.573Z" fill="#F5F3EE"/>
<path d="M60.9537 38.2351C62.3848 45.5005 63.4856 52.8761 63.4856 60.2517C63.4856 62.8937 67.3385 64.1046 68.6595 61.6827C70.641 58.05 72.6225 54.4173 74.4939 50.7845C75.4846 48.9131 76.4754 47.1518 77.4661 45.2804C78.1266 44.0695 78.677 42.5283 80.1081 42.1981C81.6493 41.7577 83.5207 42.1981 85.0618 42.1981C87.2635 42.3081 89.3551 42.4182 91.5567 42.5283C95.7399 42.7485 99.813 42.9686 103.996 43.1888C106.748 43.2989 107.739 39.3359 105.427 38.0149C101.574 35.9233 97.7214 33.8318 93.7584 31.7402C91.7769 30.7494 89.9055 29.6486 87.924 28.6579C86.1627 27.7772 84.2913 26.8965 82.64 25.7957C81.4291 24.915 81.4291 23.594 81.319 22.273C81.0989 20.0714 80.7686 17.8697 80.5484 15.6681C79.998 11.2648 79.4476 6.97152 79.0073 2.5682C78.567 -0.404043 74.604 -1.06454 73.5031 2.01778C72.0721 5.7606 70.641 9.39334 69.2099 13.1362C68.5494 15.0076 67.7788 16.879 67.1183 18.6403C66.8982 19.3008 66.678 19.9613 66.2377 20.6218C66.1276 20.7319 66.0175 20.842 65.9074 20.952C66.1276 20.842 66.1276 20.842 65.9074 20.952C65.5772 21.0621 65.2469 21.0621 64.9167 21.1722C56.9907 22.3831 48.9546 23.1537 40.9186 24.1445C37.9463 24.4747 37.0657 28.4377 40.148 29.5385C48.074 32.2906 54.789 37.4645 62.715 40.2166C64.1461 40.767 65.6872 39.6662 66.1276 38.3452C66.5679 36.804 65.5772 35.483 64.2562 34.9326C56.3302 32.1805 49.6151 27.0066 41.6892 24.2545C41.469 26.0159 41.2488 27.8873 40.9186 29.6486C45.432 29.0982 49.8353 28.5478 54.3487 27.9974C56.5504 27.7772 58.6419 27.4469 60.8436 27.2268C62.9352 27.0066 65.2469 26.8965 67.3385 26.3461C71.5216 25.0251 72.5124 19.8512 73.9435 16.2185C75.5947 12.0353 77.1359 7.85218 78.7871 3.55894C77.0258 3.33878 75.1544 3.11861 73.3931 2.78836C73.9435 7.52193 74.4939 12.2555 75.1544 16.9891C75.4846 19.3008 75.7048 21.6125 76.035 23.9243C76.2552 26.0159 76.8056 27.9974 78.4569 29.5385C79.998 30.9696 81.9795 31.8503 83.7409 32.841C85.8324 33.9418 87.924 35.0427 90.0156 36.2536C94.1987 38.4552 98.3819 40.767 102.565 42.9686C103.005 41.2073 103.446 39.5561 103.996 37.7947C99.4827 37.5746 94.9693 37.2443 90.4559 37.0242C88.2543 36.9141 85.9425 36.804 83.7409 36.6939C81.7594 36.5838 79.6678 36.4737 77.7964 37.2443C73.8334 38.7855 72.1821 43.6291 70.3107 47.1518C68.2192 51.1148 66.0175 55.0778 63.9259 59.0407C65.6872 59.4811 67.3385 59.9214 69.0998 60.4718C69.2099 52.5459 67.8889 44.73 66.3477 37.0242C66.0175 35.5931 64.3663 34.7124 62.9352 35.1527C61.2839 35.2628 60.6234 36.804 60.9537 38.2351Z" fill="#F5F3EE"/>
<path d="M91.8216 238.844C94.1368 242.233 96.3086 245.761 97.9132 249.561C98.1788 250.278 99.1551 250.583 99.8613 250.384C100.638 250.187 101.144 249.487 101.16 248.706C101.347 246.507 101.535 244.237 101.722 242.038C101.816 240.902 101.909 239.838 102.003 238.703C102.085 238.137 102.033 237.283 102.531 236.938C103.173 236.454 104.09 236.26 104.798 235.991C105.789 235.585 106.849 235.252 107.84 234.847C109.963 234.039 112.014 233.3 114.137 232.492C115.976 231.82 115.821 229.188 113.719 229.001C111.407 228.81 109.095 228.619 106.782 228.428C105.591 228.332 104.47 228.237 103.278 228.141C102.298 228.05 101.244 228.098 100.266 227.865C99.4971 227.706 99.233 226.919 98.8956 226.272C98.3538 225.337 97.8135 224.331 97.2015 223.394C95.982 221.307 94.8326 219.222 93.6131 217.135C92.8011 215.697 90.2647 216.141 90.296 217.989C90.3898 220.194 90.4852 222.328 90.5791 224.533C90.6268 225.6 90.6745 226.667 90.7222 227.734C90.7162 228.019 90.8431 228.661 90.7654 229.014C90.6907 229.226 90.2668 229.359 90.0533 229.497C86.427 231.695 82.8022 233.821 79.1058 236.017C77.6846 236.84 78.1203 239.479 79.9475 239.375C84.3768 239.042 88.8463 240.131 93.2741 239.87C94.1877 239.818 95.0447 239.125 95.0656 238.131C95.0851 237.207 94.3328 236.267 93.349 236.318C88.9197 236.651 84.4502 235.562 80.0224 235.824C80.2791 236.966 80.5373 238.037 80.8641 239.181C82.8557 237.944 84.9159 236.78 86.9074 235.542C87.9032 234.924 88.8975 234.376 89.8932 233.758C90.889 233.139 92.0236 232.594 92.9507 231.903C94.8781 230.38 94.302 227.739 94.2082 225.534C94.1203 223.045 94.0309 220.626 93.943 218.137C92.8143 218.398 91.7559 218.66 90.6258 218.991C91.9125 221.221 93.1991 223.452 94.4858 225.682C95.6381 227.625 96.6337 230.346 98.8609 231.246C99.9059 231.623 101.169 231.65 102.29 231.745C103.551 231.843 104.813 231.94 106.144 232.039C108.667 232.235 111.259 232.503 113.782 232.698C113.665 231.558 113.551 230.348 113.364 229.207C111.029 230.081 108.766 230.886 106.431 231.761C105.3 232.164 104.168 232.566 103.035 233.04C101.973 233.444 100.913 233.777 100.055 234.54C98.3366 236.139 98.4887 238.913 98.3034 241.042C98.1091 243.596 97.8447 246.149 97.649 248.774C98.7776 248.514 99.836 248.252 100.966 247.92C99.3616 244.12 97.1898 240.592 94.8746 237.203C94.3298 236.41 93.355 236.034 92.5025 236.513C91.7934 236.854 91.347 238.052 91.8216 238.844Z" fill="#F5F3EE"/>
<path d="M210.29 152.022C211.281 156.315 212.162 160.608 212.272 164.901C212.382 167.433 216.125 168.864 217.446 166.332C218.547 164.021 219.648 161.819 220.748 159.507C221.299 158.406 221.849 157.195 222.4 156.095C222.62 155.654 222.84 154.994 223.28 154.774C223.941 154.443 225.482 154.774 226.142 154.774C227.353 154.774 228.564 154.774 229.885 154.884C232.307 154.884 234.839 154.994 237.261 154.994C239.903 154.994 241.114 151.141 238.692 149.82C234.068 147.618 229.555 145.196 224.931 142.995C224.711 142.995 224.601 142.885 224.491 142.665C224.601 142.885 224.601 142.885 224.601 142.665C224.381 142.224 224.381 141.674 224.271 141.123C224.051 139.912 223.831 138.591 223.721 137.381C223.28 134.628 222.84 131.986 222.4 129.234C222.179 128.024 220.858 127.253 219.758 127.253C218.547 127.253 217.556 128.134 217.116 129.234C216.345 131.436 215.574 133.638 214.804 135.949C214.364 137.16 214.033 138.371 213.593 139.582C213.593 139.472 213.373 140.573 213.263 140.573C213.813 140.243 213.923 140.133 213.373 140.243C213.153 140.243 212.932 140.353 212.712 140.353C207.979 141.123 203.245 141.894 198.512 142.665C195.649 143.105 196.2 147.178 198.512 147.949C203.355 149.49 207.538 152.352 212.272 153.893C215.685 154.994 217.116 149.71 213.703 148.609C208.859 147.068 204.676 144.206 199.943 142.665C199.943 144.426 199.943 146.187 199.943 147.949C202.585 147.508 205.337 147.068 207.979 146.628C209.41 146.407 210.841 146.187 212.272 145.967C213.483 145.747 214.694 145.747 215.795 145.196C218.327 144.096 218.877 141.123 219.648 138.702C220.528 136.06 221.519 133.418 222.4 130.776C220.638 130.776 218.877 130.776 217.116 130.776C217.556 133.638 217.996 136.5 218.437 139.472C218.877 142.004 218.877 145.086 220.858 146.958C221.849 147.838 223.06 148.389 224.271 148.939C225.592 149.6 226.803 150.26 228.124 150.811C230.656 152.132 233.298 153.343 235.83 154.664C236.27 152.902 236.71 151.251 237.261 149.49C234.399 149.38 231.647 149.38 228.784 149.27C226.252 149.27 223.28 148.719 220.969 149.71C218.437 150.811 217.556 153.453 216.345 155.764C215.024 158.406 213.813 160.938 212.492 163.58C214.253 164.021 215.905 164.461 217.666 165.011C217.556 160.168 216.565 155.324 215.464 150.591C214.804 147.178 209.41 148.609 210.29 152.022Z" fill="#F5F3EE"/>
<path d="M205.5 143.5L219.5 141L226 145.5V151L215.5 157L205.5 143.5Z" fill="#F5F3EE"/>
<path d="M47 26.5L65.5 23.5L75 13L81.5 28.5L94 37L78 40L67.5 54L63 38.5L47 26.5Z" fill="#F5F3EE"/>
<path d="M82.2334 237.548L90.3401 231.735L93.0555 222.712L99.4443 229.314L107.122 231.418L100.207 236.638L98.5189 245.798L92.7021 239.477L82.2334 237.548Z" fill="#F5F3EE"/>
</svg>
