<svg width="261" height="221" viewBox="0 0 261 221" fill="none" xmlns="http://www.w3.org/2000/svg">
<path d="M46.4007 54.157C71.3917 53.0172 96.4251 53.186 121.43 53.5519C134.3 53.7348 147.155 53.9037 160.025 54.0444C164.709 54.1007 169.874 54.6073 171.511 59.7717C172.287 62.2061 172.372 64.7532 172.358 67.3002C172.33 70.4945 172.203 73.6889 172.118 76.8832C171.765 90.2234 171.398 103.578 171.045 116.918C170.961 120.267 170.862 123.602 170.777 126.951C170.693 130.019 170.791 133.157 170.382 136.211C169.705 141.291 166.784 144.4 161.887 145.723C156.68 147.144 151.078 146.807 145.73 146.863C138.956 146.933 132.183 147.004 125.41 147.074C111.75 147.215 98.0761 147.37 84.4164 147.51C72.5488 147.637 59.3971 146.793 48.7149 152.914C39.8389 158.008 34.1097 167.535 33.0514 177.596C32.7833 180.115 32.9385 182.592 33.2913 185.111C34.8576 184.196 36.4381 183.281 38.0045 182.367C32.741 176.977 27.4775 171.601 22.214 166.212C19.5893 163.524 16.9505 160.851 14.3399 158.149C12.1526 155.897 9.9936 153.589 8.39903 150.859C5.12522 145.217 5.64734 138.42 5.74612 132.144C5.84489 125.727 5.94367 119.31 6.04245 112.893C6.2259 100.06 6.42346 87.212 6.62101 74.3784C6.7339 69.3969 6.74801 63.3178 10.7838 59.7154C13.3803 57.3935 17.5431 56.2396 21.0851 55.522C29.4389 53.8052 37.9339 54.2977 46.4007 54.157C50.0273 54.1007 50.0414 48.4719 46.4007 48.5282C38.3008 48.6549 30.2856 48.3593 22.2422 49.6117C17.8677 50.2872 13.3239 51.3989 9.49971 53.7208C4.80066 56.5774 2.33119 61.3337 1.54096 66.681C0.595505 73.0978 0.934175 79.7679 0.835396 86.2551C0.722506 93.1785 0.623727 100.102 0.524949 107.025C0.42617 113.892 0.327391 120.745 0.214501 127.613C0.115722 134.339 -0.57573 141.445 1.20229 148.017C3.31898 155.841 9.62671 161.371 15.1019 166.972C21.4096 173.431 27.7315 179.89 34.0392 186.349C36.1982 188.558 39.1192 186.18 38.7524 183.605C37.4259 174.163 42.1673 163.974 50.0837 158.698C60.3144 151.887 74.1293 153.252 85.8416 153.125C99.6283 152.984 113.401 152.83 127.188 152.689C134.074 152.618 140.974 152.548 147.861 152.464C153.265 152.407 158.896 152.548 164.117 150.944C169.225 149.382 173.317 146.061 175.095 140.925C176.069 138.11 176.21 135.014 176.309 132.059C176.408 128.724 176.478 125.403 176.577 122.068C176.93 108.489 177.311 94.9234 177.664 81.344C177.819 75.2368 178.496 68.8762 177.847 62.7831C177.254 57.2387 174.94 52.0884 169.493 49.8369C164.272 47.6698 157.978 48.3734 152.447 48.3171C145.744 48.2468 139.055 48.1483 132.352 48.0498C106.952 47.6698 81.5377 47.2617 56.1374 48.1201C52.8918 48.2327 49.6463 48.3593 46.4148 48.5001C42.7741 48.6971 42.76 54.3259 46.4007 54.157Z" fill="#F6F4EF"/>
<path d="M113.246 150.325C113.161 156.953 112.879 163.567 112.794 170.195C112.724 174.909 112.71 179.75 114.629 184.154C116.35 188.094 119.54 190.796 123.505 192.33C127.456 193.864 131.816 194.145 136.007 194.497C141.356 194.947 146.69 195.369 152.052 195.566C157.513 195.763 163.002 195.735 168.449 195.313C171.201 195.102 173.938 194.764 176.662 194.356C178.849 194.019 181.149 193.512 183.351 193.836C187.556 194.441 188.925 198.958 188.036 202.631C186.935 207.162 184.367 211.932 181.305 215.422C179.922 217.012 180.416 219.503 182.546 220.122C190.463 222.43 198.986 219.953 205.463 215.155C208.906 212.608 211.898 209.498 214.184 205.853C215.172 204.291 215.962 202.617 216.639 200.9C217.472 198.775 217.881 196.481 218.784 194.384C221.578 187.897 230.779 189.966 236.395 190.078C239.626 190.135 242.435 189.797 245.003 187.686C248.361 184.9 249.462 180.509 249.956 176.372C250.788 169.449 251.169 162.427 251.48 155.461C251.861 146.892 252.171 138.294 251.96 129.71C251.748 121.267 251.169 112.781 250.294 104.38C249.772 99.441 249.01 94.5158 248.262 89.6047C247.684 85.8053 247.529 81.9073 246.033 78.3331C243.902 73.2249 239.655 69.8055 234.236 68.6656C228.761 67.5117 222.947 67.9339 217.387 67.9198C204.489 67.8917 191.592 67.8495 178.694 67.8213C175.067 67.8072 175.053 73.436 178.694 73.4501C189.715 73.4782 200.736 73.5064 211.757 73.5345C216.95 73.5486 222.157 73.4782 227.364 73.5908C231.315 73.6893 235.732 74.0411 238.653 77.0384C241.404 79.8669 241.785 83.7367 242.293 87.4376C242.858 91.5607 243.563 95.6697 244.114 99.8069C245.229 108.236 245.793 116.778 246.174 125.263C246.851 140.334 246.075 155.518 244.876 170.547C244.622 173.727 244.537 177.09 243.479 180.144C242.971 181.621 242.11 182.986 240.783 183.873C240.783 183.873 239.669 184.393 240.388 184.14C240.233 184.196 240.064 184.253 239.909 184.281C239.33 184.407 239.132 184.436 238.243 184.464C231.851 184.703 224.951 183.057 218.967 186.082C214.72 188.235 213.337 192.794 212.039 197.016C210.825 200.998 208.723 204.502 205.816 207.485C200.298 213.128 192.001 217.026 184.07 214.718C184.48 216.28 184.903 217.856 185.312 219.418C188.388 215.9 190.66 211.749 192.382 207.429C193.934 203.545 194.597 199.31 193.003 195.313C191.211 190.81 187.245 188.319 182.419 188.165C179.992 188.08 177.565 188.587 175.18 188.953C172.273 189.403 169.352 189.67 166.417 189.853C155.608 190.515 144.756 189.713 133.989 188.727C130.222 188.376 125.974 187.968 122.799 185.716C119.187 183.155 118.538 178.483 118.439 174.374C118.241 166.381 118.792 158.36 118.905 150.367C118.947 146.709 113.302 146.709 113.246 150.325Z" fill="#F6F4EF"/>
<path d="M39.1614 82.7651C62.7554 82.6384 86.3494 82.5258 109.943 82.3992C116.632 82.371 123.321 82.3288 130.01 82.3007C133.636 82.2866 133.65 76.6578 130.01 76.6719C106.416 76.7985 82.8216 76.9111 59.2276 77.0378C52.5388 77.0659 45.8501 77.1081 39.1614 77.1363C35.5348 77.1644 35.5348 82.7932 39.1614 82.7651Z" fill="#F6F4EF"/>
<path d="M40.1211 104.718C66.2551 107.11 92.6009 105.928 118.424 101.326C119.92 101.059 120.767 99.2297 120.4 97.8648C119.963 96.2887 118.439 95.6273 116.929 95.8947C91.6131 100.398 65.733 101.425 40.1211 99.0749C38.5971 98.9342 37.2988 100.468 37.2988 101.889C37.2988 103.536 38.5971 104.577 40.1211 104.718Z" fill="#F6F4EF"/>
<path d="M38.174 128.217C47.5016 128.4 56.815 128.583 66.1426 128.752C69.7692 128.822 69.7692 123.194 66.1426 123.123C56.815 122.94 47.5016 122.757 38.174 122.589C34.5475 122.518 34.5475 128.147 38.174 128.217Z" fill="#F6F4EF"/>
<path d="M197.673 119.901C202.739 119.901 207.819 119.901 212.885 119.901C214.367 119.901 215.778 118.607 215.708 117.087C215.637 115.567 214.466 114.272 212.885 114.272C207.819 114.272 202.739 114.272 197.673 114.272C196.192 114.272 194.781 115.567 194.851 117.087C194.922 118.607 196.093 119.901 197.673 119.901Z" fill="#F6F4EF"/>
<path d="M196.7 142.402C201.935 142.233 207.17 142.079 212.406 141.91C213.873 141.868 215.298 140.643 215.228 139.095C215.157 137.604 213.986 136.225 212.406 136.281C207.17 136.45 201.935 136.605 196.7 136.773C195.232 136.816 193.807 138.04 193.878 139.588C193.934 141.08 195.119 142.459 196.7 142.402Z" fill="#F6F4EF"/>
<path d="M165.782 168.632C182.8 168.491 199.805 168.351 216.823 168.21C220.449 168.182 220.463 162.553 216.823 162.581C199.805 162.722 182.8 162.863 165.782 163.003C162.142 163.031 162.142 168.66 165.782 168.632Z" fill="#F6F4EF"/>
<path d="M199.579 48.2747C201.822 29.3057 191.662 9.73163 175.011 0.387856C171.836 -1.39928 169 3.46961 172.16 5.24268C187.245 13.714 195.952 31.1773 193.934 48.2747C193.751 49.7804 195.359 51.0891 196.756 51.0891C198.436 51.0891 199.409 49.7804 199.579 48.2747Z" fill="#F6F4EF"/>
<path d="M217.486 47.4587C218.925 37.946 224.894 29.7139 233.558 25.4642C234.927 24.7887 235.294 22.8609 234.574 21.6085C233.756 20.2154 232.091 19.9198 230.708 20.5953C220.915 25.3938 213.662 35.1879 212.039 45.967C211.813 47.4727 212.42 48.9925 214.014 49.4287C215.341 49.7946 217.26 48.9644 217.486 47.4587Z" fill="#F6F4EF"/>
<path d="M241.517 57.1399C241.686 56.774 241.884 56.4222 242.096 56.0845C242.194 55.9297 242.293 55.789 242.392 55.6342C242.491 55.4934 242.759 55.1557 242.519 55.4512C242.999 54.8602 243.549 54.3255 244.128 53.833C244.353 53.65 243.902 53.9737 244.311 53.7063C244.466 53.6078 244.607 53.5093 244.763 53.4108C245.101 53.1997 245.454 53.0027 245.821 52.8198C245.863 52.7916 246.343 52.5806 246.103 52.6931C245.807 52.8198 246.456 52.5665 246.512 52.5524C246.893 52.4258 247.288 52.3132 247.684 52.2288C247.867 52.1865 248.036 52.1584 248.22 52.1302C248.685 52.0599 247.839 52.1584 248.319 52.1302C248.742 52.1021 249.165 52.088 249.589 52.1021C249.828 52.1162 250.054 52.1303 250.294 52.1443C250.76 52.1865 249.913 52.074 250.379 52.1584C250.802 52.2288 251.211 52.3273 251.621 52.4398C252.961 52.8338 254.189 53.5374 255.219 54.5366C256.306 55.5919 258.126 55.6201 259.212 54.5366C260.285 53.4671 260.313 51.6237 259.212 50.5542C255.84 47.2754 251.07 45.8823 246.456 46.7548C242.293 47.5428 238.511 50.526 236.677 54.3114C236.042 55.6342 236.268 57.4072 237.693 58.1671C238.92 58.8144 240.84 58.5471 241.517 57.1399Z" fill="#F6F4EF"/>
</svg>
